<svg xmlns="http://www.w3.org/2000/svg" height="40" viewBox="0 -960 960 960" width="40"><path d="M480-569.334 433.334-616l70.333-70.667h-177v-66.666h177L433-824l47-46.666L630.666-720 480-569.334ZM286.525-80q-30.858 0-52.691-21.975Q212-123.95 212-154.808q0-30.858 21.975-52.692 21.975-21.833 52.833-21.833 30.859 0 52.692 21.975t21.833 52.833q0 30.858-21.975 52.692Q317.384-80 286.525-80Zm402.667 0q-30.858 0-52.692-21.975-21.833-21.975-21.833-52.833 0-30.858 21.975-52.692 21.975-21.833 52.833-21.833 30.859 0 52.692 21.975T764-154.525q0 30.858-21.975 52.692Q720.05-80 689.192-80ZM54.667-813.334V-880h121l170 362.667h285.138l158.862-280h75L698-489.334Q687-470 669.127-458.667 651.254-447.334 630-447.334H328.667l-52 96.001H764v66.666H282.667q-40.109 0-61.054-33-20.946-32.999-2.279-66.999L280-496 133.334-813.334H54.667Z"/></svg>