<svg xmlns="http://www.w3.org/2000/svg" height="40" viewBox="0 -960 960 960" width="40"><path d="M241-257q56-37.666 113.53-58.333Q412.061-336 480.03-336q67.97 0 125.137 20.667 57.166 20.667 114.5 58.333 41.666-46.667 65-101.833Q808-414 808-480q0-136-96-232t-232-96q-136 0-232 96t-96 232q0 66 23.333 121.167Q198.667-303.667 241-257Zm238.93-195q-54.597 0-91.93-37.404-37.333-37.403-37.333-92 0-54.596 37.404-91.929 37.403-37.333 91.999-37.333 54.597 0 91.93 37.403 37.333 37.404 37.333 92t-37.404 91.929Q534.526-452 479.93-452Zm-.308 341.333q-75.323 0-143.028-28.903-67.705-28.904-117.816-79.5-50.111-50.597-79.111-117.324-29-66.727-29-144.106 0-76.712 29.14-143.69 29.141-66.978 79.465-117.297 50.324-50.32 117.086-79.083 66.763-28.763 144.142-28.763 76.712 0 143.61 29.16 66.898 29.16 116.922 79.22 50.023 50.06 79.162 117.032 29.139 66.973 29.139 143.744 0 77.156-28.763 143.868-28.763 66.713-79.129 117.037-50.365 50.324-117.516 79.465-67.151 29.14-144.303 29.14Z"/></svg>