<svg xmlns="http://www.w3.org/2000/svg" height="40" viewBox="0 -960 960 960" width="40"><path d="M682.039-274q25.915 0 43.938-18.294Q744-310.588 744-335.882t-18.392-43.706Q707.216-398 681.726-398q-25.491 0-43.608 18.06Q620-361.879 620-336.078q0 25.8 18.34 43.939T682.039-274Zm-.007 120.667q32.968 0 59.301-13.167 26.334-13.167 44.334-38.5-24.667-13.667-50.659-21-25.991-7.333-52.982-7.333T628.684-226q-26.351 7.333-49.684 21 17.333 25.333 43.699 38.5 26.365 13.167 59.333 13.167Zm.711 42.666q-68.389 0-116.232-47.767-47.844-47.767-47.844-116.143 0-68.879 47.748-116.818 47.747-47.938 116.483-47.938 68.055 0 115.912 47.849 47.856 47.848 47.856 116.728 0 68.376-47.767 116.232-47.767 47.857-116.156 47.857ZM476-112.334q-121-36-202.666-148.579-81.667-112.578-81.667-256.374v-221.1l288-108.279 289.333 108V-497q-18.667-9.333-41.167-13.833t-45.166-4.5q-99.971 0-169.986 70.21-70.014 70.209-70.014 170.456 0 34.667 12 76.5t46 77.167q-6.445 3.333-12.667 5-6.222 1.666-12 3.666Z"/></svg>