<svg xmlns="http://www.w3.org/2000/svg" height="40" viewBox="0 -960 960 960" width="40"><path d="m404.334-110.667-16-116.333Q370-232.667 345-246.167q-25-13.5-40.667-28.5l-108 47L121-364.333 212.334-434q-1-10.667-2.5-23.333-1.5-12.667-1.5-24 0-9.334 1.5-21.5 1.5-12.167 2.5-26.5l-91.334-69L196.333-731l104.334 44.667q19-15.333 42.666-28.833 23.667-13.5 44.334-20.5l16.667-115h151.999l15 116.333q23.667 9 44.167 20.833 20.5 11.834 39.833 27.5L765-731l74.666 132.667-97.333 72.666q3 13 4.167 24.667 1.166 11.667 1.166 21 0 8.333-1.666 20-1.667 11.667-2.667 26.333l94 69.334L762-227.667l-109.667-48q-19.666 16.667-39.833 29-20.167 12.333-40.167 18.333l-16 117.667H404.334Zm71.333-266q44.333 0 74.499-30.167 30.167-30.166 30.167-74.499 0-44.334-30.167-74.5Q520-586 475.667-586q-43.334 0-74 30.167Q371-525.667 371-481.333q0 44.333 30.667 74.499 30.666 30.167 74 30.167Z"/></svg>